<svg version="1.1" xmlns="http://www.w3.org/2000/svg" style="display: block;" viewBox="0 0 2048 2002" width="888" height="868">
<path transform="translate(0,0)" fill="rgb(0,0,0)" d="M 0 0 L 2046.25 0 C 2047.39 2.01131 2047.73 3.10623 2047.88 5.47526 C 2048.9 21.5552 2048 38.2663 2048 54.3947 L 2048.01 154.09 L 2048.01 461.317 L 2048.01 1666.04 L 2048 1920.32 C 2048 1931.82 2049.64 1991.91 2047.5 1999.29 C 2047.22 2000.24 2046.69 2001.12 2046.25 2002 L 0 2002 L 0 0 z"/>
<path transform="translate(0,0)" fill="rgb(253,253,253)" d="M 1154.63 112.918 C 1168.29 120.804 1181.1 130 1194.35 138.524 C 1205.48 145.682 1217.14 152.194 1228.51 158.981 C 1370.71 242.071 1510.11 329.872 1646.47 422.238 L 1726.86 475.502 C 1743.33 486.416 1761.73 496.631 1775.88 510.454 C 1776.12 590.333 1779.56 670.198 1780.01 750.089 C 1780.16 777.6 1781.36 805.554 1779.94 833.006 C 1776.93 834.569 1773.91 836.208 1770.75 837.436 C 1763.73 840.166 1759.51 838.96 1753.05 835.51 C 1737.72 827.317 1723.63 814.906 1709.6 804.631 C 1688.87 789.454 1667.59 774.921 1646.73 759.887 C 1580.51 712.149 1513.2 665.844 1447.18 617.797 C 1437.86 611.093 1428.66 604.21 1419.6 597.151 C 1406.26 586.588 1393.69 575.02 1378.06 567.92 C 1374.1 580.777 1371.66 594.052 1370.79 607.475 C 1367.46 654.107 1370.56 701.511 1370.8 748.253 C 1370.98 784.866 1368.14 822.764 1371.81 859.105 C 1394.63 869.802 1426.33 879.607 1450.61 888.616 C 1520.41 914.525 1591.35 938.55 1659.82 967.795 C 1659.6 987.46 1662.2 1006.98 1661.56 1026.72 C 1652.29 1026.81 1643.99 1028.55 1635.03 1030.87 C 1607.43 1038 1396.77 1104 1384.49 1113.24 C 1380.69 1116.1 1378.93 1123.22 1378.1 1127.61 C 1375.04 1143.82 1375.48 1161.8 1375 1178.31 C 1374.04 1215.34 1373.64 1252.38 1373.82 1289.41 C 1373.67 1321.8 1371.06 1354.85 1372.25 1387.12 C 1372.65 1397.79 1371.91 1416.57 1377.75 1425.25 C 1380.83 1426.81 1384.54 1426.89 1387.77 1425.62 C 1394.11 1423.11 1437.54 1388.58 1447.02 1381.55 L 1634.69 1242.22 L 1696.65 1196.34 C 1713.98 1183.36 1731.61 1169.33 1750.04 1157.99 C 1755.33 1154.74 1761.49 1151.48 1767.79 1151.16 C 1771.88 1150.96 1775.74 1152.21 1778.66 1155.14 C 1781.94 1158.44 1782.24 1161.83 1782.53 1166.35 C 1784.06 1189.54 1781.51 1222.59 1780.92 1246.9 L 1776.97 1396.5 C 1776.16 1426.56 1774.56 1456.76 1775.32 1486.82 C 1759.6 1504.71 1736.98 1518.11 1717.39 1531.46 C 1695.91 1546.25 1674.34 1560.89 1652.66 1575.38 C 1534.5 1656.96 1413.92 1734.98 1291.09 1809.34 C 1260.15 1827.66 1228.96 1845.58 1197.54 1863.08 C 1182.99 1871.16 1168.16 1878.67 1153.87 1887.2 C 1152.02 1829.49 1153.2 1771.49 1153.11 1713.75 L 1153.21 1398.9 C 1153.32 1367.66 1155.14 1336.48 1155.5 1305.27 C 1155.92 1269.35 1155.05 1233.32 1154.61 1197.4 C 1154.46 1184.33 1156.21 1150.95 1151.73 1139.93 C 1147.55 1137.17 1138.46 1137.36 1133.46 1137.14 C 1099.09 1135.66 1064.21 1136.82 1029.78 1136.93 L 866.163 1137.01 L 865.033 1870.62 L 864.629 1886.84 C 856.197 1880.66 846.496 1876.19 837.364 1871.14 C 828.129 1866.04 819.13 1860.47 809.996 1855.19 C 765.47 1829.73 721.132 1803.94 676.987 1777.83 C 655.869 1765.06 635.33 1751.38 614.539 1738.1 C 548.797 1696.08 484.137 1652.84 419.296 1609.46 L 300.418 1529.57 C 279.854 1515.45 259.159 1501.74 239.397 1486.48 C 241.042 1454.38 240.466 1421.91 240.9 1389.75 C 241.522 1343.07 242.531 1296.39 243.925 1249.73 C 244.603 1221.25 242.81 1190.82 246.774 1162.66 C 251.613 1162.31 258.652 1161.26 263.174 1163.29 C 277.717 1169.79 295.285 1185.15 309.08 1194.59 C 333.049 1210.8 356.651 1227.54 379.867 1244.8 C 394.572 1255.86 408.643 1267.86 423.539 1278.64 C 434.184 1286.33 445.527 1293.08 456.306 1300.6 C 478.149 1315.85 499.618 1331.87 520.989 1347.78 C 542.123 1363.76 563.339 1379.63 584.638 1395.39 C 596.874 1404.56 609.18 1414.99 622.53 1422.42 C 628.763 1425.88 635.839 1426.41 642.789 1426.96 C 644.44 1367.84 642.957 1308.98 642.652 1249.87 C 642.439 1208.67 644.895 1163.31 639.344 1122.57 C 625.577 1113.42 593.239 1104.71 576.263 1099.07 L 430.341 1049.27 C 406.219 1041.04 378.461 1034.92 356.22 1022.61 C 357.18 1003.84 357.466 984.281 360.661 965.772 C 373.346 957.565 390.57 954.912 404.775 949.931 C 444.191 936.108 483.989 923.59 523.485 910.031 C 561 897.151 599.244 882.368 637.891 873.417 C 642.119 816.689 641.422 759.857 642.476 703.032 C 643.285 659.383 646.392 615.485 644.521 571.842 C 615.191 577.988 579.968 610.993 555.277 628.884 L 373.613 759.35 C 345.287 780.054 317.657 801.626 288.764 821.575 C 276.613 829.965 264.302 839.179 250.881 845.39 C 248.01 841.809 244.748 838.396 243.994 833.726 C 242.34 823.476 243.038 812.213 243.023 801.828 C 243.09 784.269 243.014 766.709 242.796 749.151 C 241.794 697.27 241.13 645.383 240.807 593.493 C 240.632 565.484 240.023 537.41 240.835 509.41 C 256.767 500.924 271.058 490.263 285.866 480.037 C 306.757 465.61 327.782 451.182 349.245 437.619 C 417.414 394.543 483.817 348.865 551.459 304.976 C 605.275 270.616 659.426 236.782 713.903 203.48 C 746.873 182.642 780.196 162.367 813.856 142.665 C 830.863 132.634 847.329 122.397 864.884 113.274 C 867.246 160.577 865.851 208.403 865.802 255.782 L 865.422 523.901 C 865.955 603.766 866.026 683.634 865.636 763.5 L 865.7 827.62 C 865.755 840.44 866.409 853.424 865.29 866.205 C 878.95 864.903 892.86 865.623 906.565 865.819 C 924.291 866.047 942.017 866.152 959.744 866.135 C 1024.5 866.285 1089.26 866.033 1154.02 865.378 L 1153.09 352.1 L 1153.14 202.144 C 1153.15 172.703 1151.52 142.176 1154.63 112.918 z"/>
</svg>